<svg width="100" height="76" viewBox="0 0 100 76" fill="none" xmlns="http://www.w3.org/2000/svg">
<path d="M24.2834 22.1666L34.85 30.1941L28.9584 34.675L8.33337 19L28.9584 3.32495L34.85 7.80578L24.2834 15.8333H54.1667C63.0073 15.8333 71.4857 18.5023 77.7369 23.2532C83.9881 28.0042 87.5 34.4478 87.5 41.1666C87.5 47.8854 83.9881 54.3291 77.7369 59.08C71.4857 63.8309 63.0073 66.5 54.1667 66.5H16.6667V60.1666H54.1667C60.7971 60.1666 67.156 58.1648 71.8444 54.6017C76.5328 51.0385 79.1667 46.2057 79.1667 41.1666C79.1667 36.1275 76.5328 31.2948 71.8444 27.7316C67.156 24.1684 60.7971 22.1666 54.1667 22.1666H24.2834Z" fill="black"/>
</svg>
