<svg width="40" height="43" viewBox="0 0 40 43" fill="none" xmlns="http://www.w3.org/2000/svg">
<path d="M16.3925 7.69701C16.4237 7.9026 16.3287 8.07326 16.01 8.24526C15.3637 7.96783 14.6648 7.86227 13.9725 7.93754C13.1762 8.00607 12.5075 8.2802 12.5975 8.86204C12.7225 9.44388 13.4887 9.78654 14.8575 9.64948C18.2 9.34176 18.1687 6.91092 23.0712 6.43254C26.8912 6.05629 29.025 7.3221 29.3112 8.86204C29.5337 10.0593 28.6112 11.223 25.8412 11.4635C23.39 11.7027 21.9575 10.9838 21.83 10.2663C21.7662 9.89001 21.955 9.34176 23.135 9.2047C23.26 9.78654 23.9312 10.402 25.5225 10.2313C26.6762 10.1265 27.625 9.67501 27.5 9.00313C27.375 8.28423 26.1625 7.87438 24.25 8.04504C20.3662 8.42129 19.4112 10.7151 16.1 11.0228C13.75 11.2553 11.84 10.3321 11.585 8.96282C11.49 8.44951 11.49 7.25223 13.9725 7.0117C15.2462 6.90957 16.265 7.14742 16.3925 7.69701ZM3.97621 22.0026C2.944 23.3707 2.42224 25.1027 2.51246 26.8616C2.56519 27.665 2.77704 28.447 3.13383 29.1553C3.49062 29.8635 3.9841 30.4816 4.58121 30.9681C5.16343 31.4713 5.84314 31.8278 6.57039 32.0115C7.29764 32.1952 8.05394 32.2014 8.78371 32.0296C9.42188 31.8595 10.0484 31.6422 10.6587 31.3793C9.39737 31.3775 8.17801 30.8919 7.21996 30.01C6.63455 29.5719 6.13993 29.0082 5.7673 28.3544C5.39468 27.7006 5.15213 26.9708 5.05496 26.2112C4.91391 25.5176 4.90932 24.7999 5.04149 24.1043C5.17367 23.4087 5.43968 22.7505 5.82246 22.1719C6.2388 21.6031 6.75828 21.1312 7.3494 20.7847C7.94051 20.4382 8.59093 20.2244 9.26121 20.1563C10.6961 20.0483 12.1195 20.4975 13.2725 21.4221C12.9442 21.0007 12.5819 20.6113 12.19 20.2584C11.5779 19.7672 10.8715 19.4292 10.1223 19.2693C9.37313 19.1093 8.60017 19.1314 7.85996 19.3339C6.3054 19.6839 4.92386 20.6324 3.97621 22.0026ZM21.0412 14.0959C17.5445 14.1266 14.0541 13.7708 10.625 13.0344C7.79621 12.2819 6.29996 11.4609 6.29996 10.4006C6.29996 9.95585 6.49121 9.5796 7.06371 9.13482C5.28121 9.88732 4.32621 10.5041 4.32621 11.4622C4.42121 12.5238 6.01371 13.584 9.26121 14.405C13.095 15.3258 17.0174 15.7508 20.945 15.6708C24.8715 15.7563 28.7933 15.3313 32.625 14.405C35.875 13.584 37.4325 12.4888 37.4325 11.4622C37.4325 10.7097 36.7325 9.98407 35.4587 9.44657C35.6069 9.5449 35.7307 9.68037 35.8195 9.84138C35.9083 10.0024 35.9595 10.1841 35.9687 10.3711C35.9687 11.4326 34.5037 12.2873 31.5437 13.0062C28.0894 13.7735 24.5683 14.1388 21.0412 14.0959ZM32.7575 17.0388C28.9186 17.9256 24.9999 18.3501 21.0737 18.3046C17.1162 18.338 13.1668 17.9136 9.29371 17.0388C6.55621 16.2863 5.09121 15.4639 4.58246 14.6093C5.09905 18.2097 6.19905 21.6849 7.83246 24.8769C9.00996 26.793 10.1887 28.47 11.3662 30.2841C11.852 31.2912 12.2158 32.361 12.4487 33.4674C13.2433 34.6305 14.3942 35.4547 15.6987 35.7948C17.3704 36.4417 19.146 36.7209 20.92 36.6159H21.1112C22.9346 36.7008 24.757 36.4225 26.4862 35.7948C27.7419 35.4031 28.8469 34.587 29.6375 33.4674H29.7325C29.9312 32.3646 30.2632 31.2944 30.72 30.2841C31.8975 28.47 33.0762 26.7904 34.2537 24.8769C35.8538 21.6696 36.9506 18.2004 37.5 14.6093C36.8637 15.5674 35.3987 16.3938 32.7562 17.0401L32.7575 17.0388Z" fill="#6F4E37"/>
</svg>
